<?xml version="1.0" standalone="no"?>
<!DOCTYPE svg PUBLIC "-//W3C//DTD SVG 20010904//EN"
 "http://www.w3.org/TR/2001/REC-SVG-20010904/DTD/svg10.dtd">
<svg version="1.0" xmlns="http://www.w3.org/2000/svg"
 width="182.000000pt" height="169.000000pt" viewBox="0 0 182.000000 169.000000"
 preserveAspectRatio="xMidYMid meet">

<g transform="translate(0.000000,169.000000) scale(0.100000,-0.100000)"
fill="#0080FF" stroke="none">
<path d="M1334 1594 c-14 -8 -37 -14 -49 -14 -38 0 -77 -19 -82 -39 -3 -12
-11 -17 -19 -14 -8 3 -14 1 -14 -4 0 -5 -10 -9 -21 -10 -33 -3 -57 -30 -93
-107 -56 -121 -69 -154 -61 -167 5 -7 4 -10 -2 -6 -13 8 -46 -50 -39 -69 3 -8
2 -13 -3 -10 -5 3 -12 -6 -16 -21 -8 -35 -19 -17 -29 45 -13 87 -104 251 -177
317 l-32 30 31 -40 c38 -49 85 -142 80 -157 -2 -6 -16 9 -30 33 -15 24 -52 71
-83 104 -32 33 -47 46 -35 28 11 -18 25 -35 30 -38 10 -6 70 -109 70 -120 0
-5 -10 1 -22 12 -43 38 -53 37 -17 -3 36 -41 85 -131 76 -140 -3 -3 -15 10
-27 28 -13 18 -35 47 -50 63 -15 17 -40 53 -55 80 -35 61 -119 147 -166 169
-32 16 -33 16 -9 -1 35 -23 150 -142 150 -154 0 -6 -15 1 -32 14 -18 13 -40
27 -48 31 -8 4 -4 -1 10 -11 52 -38 92 -77 106 -105 17 -33 56 -179 50 -185
-2 -3 -20 26 -40 64 -63 120 -172 219 -261 238 -20 5 -12 -2 24 -19 29 -15 71
-40 92 -57 87 -69 179 -257 179 -368 0 -127 -92 -305 -203 -389 -28 -22 -109
-72 -179 -111 -121 -68 -178 -115 -178 -147 0 -17 1 -17 35 -4 22 8 26 8 22
-4 -10 -25 6 -27 30 -4 13 12 23 16 23 10 0 -6 -25 -36 -55 -66 -61 -60 -75
-103 -29 -86 33 13 34 13 28 -4 -10 -26 15 -27 32 -1 9 14 19 23 22 21 3 -3
-1 -12 -7 -20 -7 -8 -14 -26 -15 -40 -3 -21 0 -24 15 -16 27 15 44 13 30 -4
-9 -11 -6 -13 17 -10 15 2 41 10 58 19 16 8 40 15 52 15 13 0 35 9 49 20 14
11 34 20 44 20 25 0 71 42 126 112 25 34 73 90 105 127 51 57 81 108 125 211
8 20 9 10 6 -45 -7 -90 10 -168 53 -255 58 -115 177 -227 259 -245 26 -5 24
-4 -10 13 -55 26 -100 65 -137 121 l-32 46 52 -47 c29 -26 74 -59 100 -73 49
-28 141 -56 177 -54 11 1 -5 7 -35 14 -72 16 -97 27 -147 64 -44 32 -112 116
-113 138 0 7 24 -5 53 -27 28 -22 57 -40 63 -40 6 0 19 -9 28 -19 10 -11 41
-29 69 -41 122 -53 284 -8 363 99 24 32 22 30 -21 -11 -65 -64 -124 -92 -206
-96 -79 -5 -134 16 -198 73 -49 45 -54 62 -8 35 17 -11 36 -20 42 -20 5 0 -15
15 -45 33 -41 24 -61 43 -77 77 -27 56 -45 150 -31 167 6 7 5 33 -2 71 -14 67
-4 155 31 282 51 185 131 284 292 363 116 56 162 107 98 107 -24 0 -29 4 -26
20 5 26 -3 25 -34 -2 l-25 -23 17 27 c9 15 17 34 17 43 0 9 5 13 10 10 6 -4
25 9 43 27 l32 33 -32 3 c-26 3 -33 8 -33 24 l0 21 -23 -21 c-27 -26 -34 -27
-34 -7 0 8 4 12 8 10 10 -7 32 22 25 34 -6 9 -47 6 -70 -5 -6 -3 -1 3 11 14
21 19 22 20 3 25 -10 3 -31 -1 -46 -9z m-549 -484 c15 -62 15 -68 -4 -125
l-19 -60 -1 85 c-1 47 -8 116 -16 155 -8 38 -15 72 -15 75 2 18 41 -77 55
-130z m210 101 c3 -5 1 -12 -5 -16 -5 -3 -10 1 -10 9 0 18 6 21 15 7z m40
-759 c-1 -1 -12 29 -24 67 -19 60 -20 76 -11 113 22 85 25 81 31 -47 4 -71 6
-131 4 -133z m-125 128 c0 -5 -2 -10 -4 -10 -3 0 -8 5 -11 10 -3 6 -1 10 4 10
6 0 11 -4 11 -10z m173 -215 c4 3 5 2 2 -1 -2 -4 10 -27 27 -51 22 -33 25 -42
12 -35 -23 13 -65 58 -89 94 -9 15 -20 26 -24 24 -4 -3 -7 4 -7 15 0 16 6 13
36 -16 20 -20 39 -33 43 -30z"/>
<path d="M378 1583 c7 -3 16 -2 19 1 4 3 -2 6 -13 5 -11 0 -14 -3 -6 -6z"/>
<path d="M425 1570 c27 -12 43 -12 25 0 -8 5 -22 9 -30 9 -10 0 -8 -3 5 -9z"/>
<path d="M605 1540 c10 -11 20 -20 23 -20 3 0 -3 9 -13 20 -10 11 -20 20 -23
20 -3 0 3 -9 13 -20z"/>
<path d="M323 1443 c15 -2 37 -2 50 0 12 2 0 4 -28 4 -27 0 -38 -2 -22 -4z"/>
<path d="M1077 543 c-9 -14 45 -102 88 -145 36 -35 111 -78 137 -78 7 0 -9 11
-37 24 -56 26 -154 126 -163 166 -6 26 -19 43 -25 33z"/>
<path d="M1445 330 c-13 -6 -15 -9 -5 -9 8 0 22 4 30 9 18 12 2 12 -25 0z"/>
<path d="M1343 313 c15 -2 39 -2 55 0 15 2 2 4 -28 4 -30 0 -43 -2 -27 -4z"/>
</g>
</svg>
